<?xml version="1.0" encoding="utf-8"?>
<!DOCTYPE svg PUBLIC "-//W3C//DTD SVG 20010904//EN" "http://www.w3.org/TR/2001/REC-SVG-20010904/DTD/svg10.dtd">
<svg version="1.0" xmlns="http://www.w3.org/2000/svg" width="54px" height="54px" viewBox="0 0 54 54" preserveAspectRatio="xMidYMid meet">
 <g fill="#38b911">
  <path d="M17 39.7 c0 -2.7 0.6 -3.6 2.6 -4.5 3.2 -1.5 3 -5.5 -0.3 -6 -1.9 -0.3 -2.3 -1 -2.3 -4.3 l0 -3.9 4.1 0 4.2 0 -0.6 -4.1 c-0.3 -2.2 -0.2 -3.9 0.1 -3.7 0.4 0.2 1.9 1 3.5 1.7 1.8 1 2.7 2.2 2.7 3.8 0 2 0.5 2.3 4 2.3 l4 0 0 4 c0 3.6 0.3 4 2.4 4 4.2 0 4.5 5.6 0.3 6.2 -1.7 0.2 -2.3 1.1 -2.5 4.1 -0.3 3.6 -0.4 3.7 -4.2 3.7 -3.2 0 -3.9 -0.4 -4.2 -2.2 -0.2 -1.7 -1 -2.3 -2.8 -2.3 -1.8 0 -2.6 0.6 -2.8 2.3 -0.3 1.8 -1 2.2 -4.3 2.2 -3.8 0 -3.9 -0.1 -3.9 -3.3z"/>
 </g>
 <g fill="#d12f2f" stroke="#0139a9" stroke-width="1">
  <path d="M17 39.7 c0 -2.7 0.6 -3.6 2.6 -4.5 3.2 -1.5 3 -5.5 -0.3 -6 -1.9 -0.3 -2.3 -1 -2.3 -4.3 0 -3.9 0 -3.9 4 -3.9 3.2 0 4 -0.4 4 -1.9 0 -2.8 2.6 -4.7 4.5 -3.1 0.8 0.7 1.5 2.1 1.5 3.1 0 1.5 0.8 1.9 4 1.9 l4 0 0 4 c0 3.2 0.4 4 1.9 4 2.8 0 4.7 2.6 3.1 4.5 -0.7 0.8 -2.1 1.5 -3.1 1.5 -1.5 0 -1.9 0.8 -1.9 4 0 4 0 4 -3.9 4 -3.3 0 -4 -0.4 -4.3 -2.2 -0.2 -1.7 -1 -2.3 -2.8 -2.3 -1.8 0 -2.6 0.6 -2.8 2.3 -0.3 1.8 -1 2.2 -4.3 2.2 -3.8 0 -3.9 -0.1 -3.9 -3.3z"/>
 </g>
 <g fill="#0dadfd" stroke="#229b17" stroke-width="1">
  <path d="M17 39.6 c0 -2.6 0.5 -3.6 2 -4.1 1.1 -0.3 2.5 -1.5 3.1 -2.6 0.8 -1.7 0.7 -2.3 -0.7 -3.4 -1 -0.7 -2.4 -1.1 -3.1 -0.8 -0.9 0.4 -1.3 -0.6 -1.3 -3.6 l0 -4.1 4 0 c3.2 0 4 -0.4 4 -1.9 0 -2.8 2.6 -4.7 4.5 -3.1 0.8 0.7 1.5 2.1 1.5 3.1 0 1.5 0.8 1.9 4 1.9 4 0 4 0 4 3.9 0 3.3 0.4 4 2.3 4.3 1.6 0.2 2.2 1 2.2 2.8 0 1.8 -0.6 2.6 -2.2 2.8 -1.9 0.3 -2.3 1 -2.3 4.3 l0 3.9 -4.1 0 c-2.9 0 -4 -0.4 -3.6 -1.3 0.6 -1.7 -3.8 -7.1 -5.1 -6.3 -0.6 0.4 -0.9 1.3 -0.6 2 0.3 0.8 0.1 1.7 -0.5 2 -0.6 0.4 -0.8 1.3 -0.4 2.1 0.4 1.2 -0.4 1.5 -3.6 1.5 -4 0 -4.1 -0.1 -4.1 -3.4z"/>
 </g>
</svg>